<svg xmlns="http://www.w3.org/2000/svg" viewBox="0 0 32 32" fill="none" stroke="#073642" stroke-linecap="round" stroke-linejoin="round">
  <!-- Anvil body -->
  <path d="M6 18 H26 V24 Q26 26 24 26 H8 Q6 26 6 24 Z" stroke-width="1.5" fill="#073642" opacity="0.15"/>
  <path d="M6 18 H26 V24 Q26 26 24 26 H8 Q6 26 6 24 Z" stroke-width="1.5"/>
  <!-- Anvil horn (left taper) -->
  <path d="M6 18 Q2 18 2 20 L6 22" stroke-width="1.5"/>
  <!-- Anvil flat top -->
  <path d="M8 14 H24 V18 H8 Z" stroke-width="1.5" fill="#073642" opacity="0.25"/>
  <path d="M8 14 H24 V18 H8 Z" stroke-width="1.5"/>
  <!-- Anvil step (right side) -->
  <path d="M24 16 H28 V18 H26" stroke-width="1.5"/>
  <!-- Base/feet -->
  <path d="M10 26 V29 H14 V26" stroke-width="1.5"/>
  <path d="M18 26 V29 H22 V26" stroke-width="1.5"/>
  <!-- Hammer -->
  <path d="M13 5 H19 V9 H13 Z" stroke-width="1.5" fill="#268bd2" opacity="0.3"/>
  <path d="M13 5 H19 V9 H13 Z" stroke-width="1.5"/>
  <line x1="16" y1="9" x2="16" y2="14" stroke-width="1.5"/>
  <!-- Sparks -->
  <circle cx="10" cy="10" r="1" fill="#268bd2" stroke="none"/>
  <circle cx="22" cy="8" r="1" fill="#268bd2" stroke="none"/>
  <circle cx="8" cy="7" r="0.7" fill="#268bd2" stroke="none"/>
  <circle cx="24" cy="11" r="0.7" fill="#268bd2" stroke="none"/>
</svg>
